<svg width="16" height="7" viewBox="0 0 16 7" fill="none" xmlns="http://www.w3.org/2000/svg">
<path d="M11.222 5.95C11.594 5.182 11.942 4.606 12.266 4.222H1.772V3.466H12.266C11.942 3.082 11.594 2.506 11.222 1.738H11.852C12.608 2.614 13.4 3.262 14.228 3.682V4.006C13.4 4.426 12.608 5.074 11.852 5.95H11.222Z" fill="white"/>
<path d="M11.222 5.95L10.322 5.51407L9.62649 6.95H11.222V5.95ZM12.266 4.222L13.0303 4.86687L14.4182 3.222H12.266V4.222ZM1.772 4.222H0.772V5.222H1.772V4.222ZM1.772 3.466V2.466H0.772V3.466H1.772ZM12.266 3.466V4.466H14.4182L13.0303 2.82113L12.266 3.466ZM11.222 1.738V0.737999H9.62649L10.322 2.17393L11.222 1.738ZM11.852 1.738L12.6091 1.08465L12.3099 0.737999H11.852V1.738ZM14.228 3.682H15.228V3.06795L14.6804 2.79017L14.228 3.682ZM14.228 4.006L14.6804 4.89783L15.228 4.62005V4.006H14.228ZM11.852 5.95V6.95H12.3099L12.6091 6.60335L11.852 5.95ZM12.122 6.38593C12.4791 5.6486 12.7846 5.15811 13.0303 4.86687L11.5017 3.57713C11.0994 4.05389 10.7089 4.7154 10.322 5.51407L12.122 6.38593ZM12.266 3.222H1.772V5.222H12.266V3.222ZM2.772 4.222V3.466H0.772V4.222H2.772ZM1.772 4.466H12.266V2.466H1.772V4.466ZM13.0303 2.82113C12.7846 2.52989 12.4791 2.0394 12.122 1.30207L10.322 2.17393C10.7089 2.9726 11.0994 3.63411 11.5017 4.11087L13.0303 2.82113ZM11.222 2.738H11.852V0.737999H11.222V2.738ZM11.0949 2.39135C11.9158 3.34246 12.8067 4.08237 13.7756 4.57383L14.6804 2.79017C13.9933 2.44163 13.3002 1.88554 12.6091 1.08465L11.0949 2.39135ZM13.228 3.682V4.006H15.228V3.682H13.228ZM13.7756 3.11417C12.8067 3.60563 11.9158 4.34554 11.0949 5.29665L12.6091 6.60335C13.3002 5.80246 13.9933 5.24637 14.6804 4.89783L13.7756 3.11417ZM11.852 4.95H11.222V6.95H11.852V4.95Z" fill="black"/>
</svg>
